<svg height="96" viewBox="0 0 96 96" width="96" xmlns="http://www.w3.org/2000/svg"><g opacity=".2"><path d="m30.88 7.06-8.69 5.67-17.39 30.89v10.82l17.39 28.32 8.69 5.15h34.25l9.2-5.15 16.36-27.81v-11.84l-18.1-30.89-6.95-4.13z" fill="#fff" opacity=".5"/><path d="m90.84 42.72-17.39-29.87c-.06-.11-.16-.2-.27-.27-.13-.21-.35-.34-.59-.36l-7.07-4.28c-.12-.07-.25-.11-.4-.11h-34.24c-.13 0-.27.04-.38.1l-7.5 4.35-.43-.07c-.32-.05-.63.1-.79.39l-16.88 30.39c-.15.27-.12.61.07.86l.09.11v10.48c0 .14.04.27.11.39l16.36 27.81c.07.11.16.21.27.27l8.69 5.15c.12.07.25.11.39.11h33.74c.13 0 .26-.03.37-.1l9.2-5.15c.12-.07.21-.16.28-.28l16.36-27.29c.07-.12.11-.26.11-.4v-11.84c0-.14-.04-.27-.1-.39zm-17.24 21.08-9.74 22.56h-32.72l-8.76-22.55 10.25-5.36 15.37-8.03 8.78 4.58zm-50.59-49.74.27-.16 23.95 3.86v31.31l-4.1 2.14-21.51 11.26-14.9-18.88zm51.37 48.41-25.61-13.4v-31.31l23.37-3.92 17.11 30.23zm-43.3-53.09h33.83l5.31 3.21-22.22 3.73-22.61-3.64zm-24.49 44.84v-8.32l14.15 17.93 8.41 21.64-6.41-3.8zm66.68 27.45-7.53 4.21 9.51-22.03 14.16-17.54v8.43z"/><g fill="#fff"><path d="m65.22 89.6h-34.97c-.14 0-.27-.04-.39-.11l-9.01-5.34c-.11-.07-.2-.16-.27-.27l-16.95-28.82c-.07-.12-.11-.25-.11-.39v-11.2c0-.13.03-.26.1-.38l17.22-31.22c.07-.12.17-.22.29-.29l8.74-5.07c.12-.07.25-.1.38-.1h35.5c.14 0 .27.04.4.11l7.95 4.8c.11.07.2.16.27.27l18.01 30.95c.07.12.11.25.11.39v12.27c0 .14-.04.28-.11.4l-16.97 28.29c-.07.11-.17.21-.28.28l-9.54 5.34c-.11.05-.24.09-.37.09zm-34.76-1.55h34.56l9.18-5.14 16.74-27.92v-11.85l-17.81-30.6-7.6-4.59h-35.07l-8.38 4.86-17.02 30.85v10.8l16.74 28.46z"/><path d="m65.22 89.6h-34.97c-.14 0-.27-.04-.39-.11l-9.01-5.34c-.11-.07-.2-.16-.27-.27l-16.95-28.82c-.07-.12-.11-.25-.11-.39v-11.2c0-.13.03-.26.1-.38l17.22-31.22c.07-.12.17-.22.29-.29l8.74-5.07c.12-.07.25-.1.38-.1h35.5c.14 0 .27.04.4.11l7.95 4.8c.11.07.2.16.27.27l18.01 30.95c.07.12.11.25.11.39v12.27c0 .14-.04.28-.11.4l-16.97 28.29c-.07.11-.17.21-.28.28l-9.54 5.34c-.11.05-.24.09-.37.09zm-34.76-1.55h34.56l9.18-5.14 16.74-27.92v-11.85l-17.81-30.6-7.6-4.59h-35.07l-8.38 4.86-17.02 30.85v10.8l16.74 28.46z"/></g></g></svg>